<svg width="256" height="256" viewBox="0 0 256 256" fill="none" xmlns="http://www.w3.org/2000/svg">
<path d="M128 21.3333C99.8219 21.6927 72.8991 33.0461 52.9726 52.9726C33.046 72.8991 21.6926 99.8219 21.3333 128C21.465 144.415 25.3836 160.578 32.784 175.231C40.1845 189.884 50.867 202.631 63.9999 212.48V213.333H65.0666C83.1272 227.173 105.246 234.674 128 234.674C150.754 234.674 172.873 227.173 190.933 213.333H192V212.48C205.133 202.631 215.815 189.884 223.216 175.231C230.616 160.578 234.535 144.415 234.667 128C234.307 99.8219 222.954 72.8991 203.027 52.9726C183.101 33.0461 156.178 21.6927 128 21.3333V21.3333ZM86.0799 201.92C87.6371 194.789 91.5855 188.404 97.2702 183.825C102.955 179.247 110.034 176.749 117.333 176.747H138.667C145.966 176.749 153.045 179.247 158.73 183.825C164.414 188.404 168.363 194.789 169.92 201.92C157.215 209.395 142.741 213.337 128 213.337C113.259 213.337 98.7853 209.395 86.0799 201.92V201.92ZM187.84 188.16C183.783 178.463 176.951 170.182 168.202 164.356C159.453 158.53 149.178 155.419 138.667 155.413H117.333C106.822 155.419 96.5468 158.53 87.7981 164.356C79.0493 170.182 72.2172 178.463 68.1599 188.16C60.167 180.299 53.8015 170.939 49.4273 160.617C45.053 150.294 42.7557 139.211 42.6666 128C42.9433 105.454 52.0225 83.9096 67.9661 67.9661C83.9096 52.0226 105.454 42.9433 128 42.6666C150.546 42.9433 172.09 52.0226 188.034 67.9661C203.977 83.9096 213.057 105.454 213.333 128C213.244 139.211 210.947 150.294 206.573 160.617C202.198 170.939 195.833 180.299 187.84 188.16V188.16Z" fill="#008489"/>
<path d="M128 64C122.361 63.8687 116.754 64.8825 111.518 66.9802C106.282 69.0779 101.526 72.2159 97.5376 76.2043C93.5492 80.1928 90.4112 84.9488 88.3135 90.1847C86.2158 95.4207 85.202 101.028 85.3333 106.667C85.202 112.306 86.2158 117.913 88.3135 123.149C90.4112 128.385 93.5492 133.141 97.5376 137.129C101.526 141.118 106.282 144.255 111.518 146.353C116.754 148.451 122.361 149.465 128 149.333C133.639 149.465 139.246 148.451 144.482 146.353C149.718 144.255 154.474 141.118 158.462 137.129C162.451 133.141 165.589 128.385 167.687 123.149C169.784 117.913 170.798 112.306 170.667 106.667C170.798 101.028 169.784 95.4207 167.687 90.1847C165.589 84.9488 162.451 80.1928 158.462 76.2043C154.474 72.2159 149.718 69.0779 144.482 66.9802C139.246 64.8825 133.639 63.8687 128 64V64ZM128 128C125.162 128.137 122.327 127.679 119.677 126.656C117.026 125.632 114.619 124.066 112.61 122.057C110.601 120.048 109.034 117.641 108.011 114.99C106.987 112.34 106.529 109.505 106.667 106.667C106.529 103.829 106.987 100.994 108.011 98.3432C109.034 95.6928 110.601 93.2858 112.61 91.2768C114.619 89.2678 117.026 87.7012 119.677 86.6776C122.327 85.6541 125.162 85.1962 128 85.3334C130.838 85.1962 133.673 85.6541 136.323 86.6776C138.974 87.7012 141.381 89.2678 143.39 91.2768C145.399 93.2858 146.966 95.6928 147.989 98.3432C149.013 100.994 149.471 103.829 149.333 106.667C149.471 109.505 149.013 112.34 147.989 114.99C146.966 117.641 145.399 120.048 143.39 122.057C141.381 124.066 138.974 125.632 136.323 126.656C133.673 127.679 130.838 128.137 128 128Z" fill="#008489"/>
</svg>
