<svg width="256" height="256" viewBox="0 0 256 256" fill="none" xmlns="http://www.w3.org/2000/svg">
<path d="M168 16C156.757 15.9974 145.669 18.6285 135.626 23.6825C125.583 28.7364 116.863 36.0727 110.165 45.1033C103.468 54.134 98.9787 64.608 97.0578 75.6859C95.137 86.7638 95.8377 98.1377 99.104 108.896L16 192V240H64L147.104 156.896C157.007 159.902 167.442 160.738 177.698 159.346C187.953 157.955 197.788 154.369 206.532 148.832C215.276 143.296 222.724 135.94 228.368 127.265C234.012 118.59 237.719 108.8 239.238 98.5626C240.756 88.3252 240.049 77.8808 237.166 67.9412C234.283 58.0015 229.291 48.8003 222.53 40.9645C215.769 33.1287 207.398 26.8426 197.988 22.5345C188.578 18.2264 178.349 15.9976 168 16V16ZM168 144C162.492 143.997 157.015 143.183 151.744 141.584L142.568 138.8L135.792 145.576L110.344 171.024L99.312 160L88 171.312L99.032 182.344L86.344 195.032L75.312 184L64 195.312L75.032 206.344L57.376 224H32V198.624L110.416 120.208L117.2 113.432L114.416 104.256C110.997 92.9839 111.219 80.9207 115.051 69.7821C118.883 58.6436 126.13 48.997 135.76 42.2146C145.391 35.4322 156.915 31.8593 168.694 32.0042C180.472 32.1491 191.905 36.0045 201.366 43.0217C210.827 50.039 217.834 59.861 221.391 71.0904C224.947 82.3199 224.873 94.3849 221.177 105.569C217.482 116.754 210.353 126.488 200.806 133.388C191.259 140.288 179.779 144.001 168 144V144Z" fill="#008489"/>
<path d="M176 96C184.837 96 192 88.8366 192 80C192 71.1634 184.837 64 176 64C167.163 64 160 71.1634 160 80C160 88.8366 167.163 96 176 96Z" fill="#008489"/>
</svg>
