<svg width="256" height="256" viewBox="0 0 256 256" fill="none" xmlns="http://www.w3.org/2000/svg">
<path d="M228 48H82C80.9 48 80 48.9 80 50V64C80 65.1 80.9 66 82 66H228C229.1 66 230 65.1 230 64V50C230 48.9 229.1 48 228 48ZM228 119H82C80.9 119 80 119.9 80 121V135C80 136.1 80.9 137 82 137H228C229.1 137 230 136.1 230 135V121C230 119.9 229.1 119 228 119ZM228 190H82C80.9 190 80 190.9 80 192V206C80 207.1 80.9 208 82 208H228C229.1 208 230 207.1 230 206V192C230 190.9 229.1 190 228 190ZM26 57C26 58.8385 26.3621 60.659 27.0657 62.3576C27.7693 64.0561 28.8005 65.5995 30.1005 66.8995C31.4005 68.1995 32.9439 69.2307 34.6424 69.9343C36.341 70.6379 38.1615 71 40 71C41.8385 71 43.659 70.6379 45.3576 69.9343C47.0561 69.2307 48.5995 68.1995 49.8995 66.8995C51.1995 65.5995 52.2307 64.0561 52.9343 62.3576C53.6379 60.659 54 58.8385 54 57C54 55.1615 53.6379 53.341 52.9343 51.6424C52.2307 49.9439 51.1995 48.4005 49.8995 47.1005C48.5995 45.8005 47.0561 44.7693 45.3576 44.0657C43.659 43.3621 41.8385 43 40 43C38.1615 43 36.341 43.3621 34.6424 44.0657C32.9439 44.7693 31.4005 45.8005 30.1005 47.1005C28.8005 48.4005 27.7693 49.9439 27.0657 51.6424C26.3621 53.341 26 55.1615 26 57V57ZM26 128C26 129.839 26.3621 131.659 27.0657 133.358C27.7693 135.056 28.8005 136.599 30.1005 137.899C31.4005 139.2 32.9439 140.231 34.6424 140.934C36.341 141.638 38.1615 142 40 142C41.8385 142 43.659 141.638 45.3576 140.934C47.0561 140.231 48.5995 139.2 49.8995 137.899C51.1995 136.599 52.2307 135.056 52.9343 133.358C53.6379 131.659 54 129.839 54 128C54 126.161 53.6379 124.341 52.9343 122.642C52.2307 120.944 51.1995 119.401 49.8995 118.101C48.5995 116.8 47.0561 115.769 45.3576 115.066C43.659 114.362 41.8385 114 40 114C38.1615 114 36.341 114.362 34.6424 115.066C32.9439 115.769 31.4005 116.8 30.1005 118.101C28.8005 119.401 27.7693 120.944 27.0657 122.642C26.3621 124.341 26 126.161 26 128V128ZM26 199C26 200.839 26.3621 202.659 27.0657 204.358C27.7693 206.056 28.8005 207.599 30.1005 208.899C31.4005 210.2 32.9439 211.231 34.6424 211.934C36.341 212.638 38.1615 213 40 213C41.8385 213 43.659 212.638 45.3576 211.934C47.0561 211.231 48.5995 210.2 49.8995 208.899C51.1995 207.599 52.2307 206.056 52.9343 204.358C53.6379 202.659 54 200.839 54 199C54 197.161 53.6379 195.341 52.9343 193.642C52.2307 191.944 51.1995 190.401 49.8995 189.101C48.5995 187.8 47.0561 186.769 45.3576 186.066C43.659 185.362 41.8385 185 40 185C38.1615 185 36.341 185.362 34.6424 186.066C32.9439 186.769 31.4005 187.8 30.1005 189.101C28.8005 190.401 27.7693 191.944 27.0657 193.642C26.3621 195.341 26 197.161 26 199V199Z" fill="#008489"/>
</svg>
