<svg width="256" height="256" viewBox="0 0 256 256" fill="none" xmlns="http://www.w3.org/2000/svg">
<path d="M128 74.6667V53.3333C128 41.6 118.4 32 106.667 32H42.6666C30.9333 32 21.3333 41.6 21.3333 53.3333V202.667C21.3333 214.4 30.9333 224 42.6666 224H213.333C225.067 224 234.667 214.4 234.667 202.667V96C234.667 84.2667 225.067 74.6667 213.333 74.6667H128ZM63.9999 202.667H42.6666V181.333H63.9999V202.667ZM63.9999 160H42.6666V138.667H63.9999V160ZM63.9999 117.333H42.6666V96H63.9999V117.333ZM63.9999 74.6667H42.6666V53.3333H63.9999V74.6667ZM106.667 202.667H85.3333V181.333H106.667V202.667ZM106.667 160H85.3333V138.667H106.667V160ZM106.667 117.333H85.3333V96H106.667V117.333ZM106.667 74.6667H85.3333V53.3333H106.667V74.6667ZM202.667 202.667H128V181.333H149.333V160H128V138.667H149.333V117.333H128V96H202.667C208.533 96 213.333 100.8 213.333 106.667V192C213.333 197.867 208.533 202.667 202.667 202.667ZM192 117.333H170.667V138.667H192V117.333ZM192 160H170.667V181.333H192V160Z" fill="#008489"/>
</svg>
