<svg width="256" height="256" viewBox="0 0 256 256" fill="none" xmlns="http://www.w3.org/2000/svg">
<path d="M125.867 116.267C101.653 109.973 93.8667 103.467 93.8667 93.3333C93.8667 81.7067 104.64 73.6 122.667 73.6C141.653 73.6 148.693 82.6667 149.333 96H172.907C172.16 77.6533 160.96 60.8 138.667 55.36V32H106.667V55.04C85.9733 59.52 69.3333 72.96 69.3333 93.5467C69.3333 118.187 89.7067 130.453 119.467 137.6C146.133 144 151.467 153.387 151.467 163.307C151.467 170.667 146.24 182.4 122.667 182.4C100.693 182.4 92.0533 172.587 90.88 160H67.4133C68.6933 183.36 86.1867 196.48 106.667 200.853V224H138.667V201.067C159.467 197.12 176 185.067 176 163.2C176 132.907 150.08 122.56 125.867 116.267Z" fill="#008489"/>
</svg>
