<svg width="256" height="256" viewBox="0 0 256 256" fill="none" xmlns="http://www.w3.org/2000/svg">
<path d="M128 21.3333C69.1199 21.3333 21.3333 69.12 21.3333 128C21.3333 186.88 69.1199 234.667 128 234.667C186.88 234.667 234.667 186.88 234.667 128C234.667 69.12 186.88 21.3333 128 21.3333ZM128 213.333C80.8533 213.333 42.6666 175.147 42.6666 128C42.6666 80.8533 80.8533 42.6667 128 42.6667C175.147 42.6667 213.333 80.8533 213.333 128C213.333 175.147 175.147 213.333 128 213.333Z" fill="#008489"/>
<path d="M74.6667 144C83.5033 144 90.6667 136.837 90.6667 128C90.6667 119.163 83.5033 112 74.6667 112C65.8302 112 58.6667 119.163 58.6667 128C58.6667 136.837 65.8302 144 74.6667 144Z" fill="#008489"/>
<path d="M128 144C136.837 144 144 136.837 144 128C144 119.163 136.837 112 128 112C119.163 112 112 119.163 112 128C112 136.837 119.163 144 128 144Z" fill="#008489"/>
<path d="M181.333 144C190.17 144 197.333 136.837 197.333 128C197.333 119.163 190.17 112 181.333 112C172.497 112 165.333 119.163 165.333 128C165.333 136.837 172.497 144 181.333 144Z" fill="#008489"/>
</svg>
