<svg width="256" height="256" viewBox="0 0 256 256" fill="none" xmlns="http://www.w3.org/2000/svg">
<path d="M160 85.3333H181.333H160ZM160 128H181.333H160ZM181.333 170.667H74.6667H181.333ZM74.6667 85.3333V128H117.333V85.3333H74.6667ZM53.3333 213.333H202.667C208.325 213.333 213.751 211.086 217.752 207.085C221.752 203.084 224 197.658 224 192V64C224 58.342 221.752 52.9158 217.752 48.915C213.751 44.9143 208.325 42.6667 202.667 42.6667H53.3333C47.6754 42.6667 42.2492 44.9143 38.2484 48.915C34.2476 52.9158 32 58.342 32 64V192C32 197.658 34.2476 203.084 38.2484 207.085C42.2492 211.086 47.6754 213.333 53.3333 213.333Z" stroke="#008489" stroke-width="21.3333" stroke-linecap="round" stroke-linejoin="round"/>
</svg>
