<svg width="256" height="256" viewBox="0 0 256 256" fill="none" xmlns="http://www.w3.org/2000/svg">
<path d="M16 76C16 60.544 28.544 48 44 48H212C227.456 48 240 60.544 240 76V180C240 187.426 237.05 194.548 231.799 199.799C226.548 205.05 219.426 208 212 208H44C36.5739 208 29.452 205.05 24.201 199.799C18.95 194.548 16 187.426 16 180V76ZM44 64C40.8174 64 37.7652 65.2643 35.5147 67.5147C33.2643 69.7652 32 72.8174 32 76V180C32 186.624 37.376 192 44 192H212C215.183 192 218.235 190.736 220.485 188.485C222.736 186.235 224 183.183 224 180V76C224 72.8174 222.736 69.7652 220.485 67.5147C218.235 65.2643 215.183 64 212 64H44ZM152 96C149.878 96 147.843 96.8429 146.343 98.3431C144.843 99.8434 144 101.878 144 104C144 106.122 144.843 108.157 146.343 109.657C147.843 111.157 149.878 112 152 112H200C202.122 112 204.157 111.157 205.657 109.657C207.157 108.157 208 106.122 208 104C208 101.878 207.157 99.8434 205.657 98.3431C204.157 96.8429 202.122 96 200 96H152ZM152 144C149.878 144 147.843 144.843 146.343 146.343C144.843 147.843 144 149.878 144 152C144 154.122 144.843 156.157 146.343 157.657C147.843 159.157 149.878 160 152 160H200C202.122 160 204.157 159.157 205.657 157.657C207.157 156.157 208 154.122 208 152C208 149.878 207.157 147.843 205.657 146.343C204.157 144.843 202.122 144 200 144H152ZM84.176 123.424C87.0273 123.424 89.8506 122.862 92.4848 121.771C95.119 120.68 97.5126 119.081 99.5287 117.065C101.545 115.049 103.144 112.655 104.235 110.021C105.326 107.387 105.888 104.563 105.888 101.712C105.888 98.8607 105.326 96.0374 104.235 93.4032C103.144 90.769 101.545 88.3754 99.5287 86.3593C97.5126 84.3432 95.119 82.7439 92.4848 81.6527C89.8506 80.5616 87.0273 80 84.176 80C78.4176 80 72.8951 82.2875 68.8233 86.3593C64.7515 90.4311 62.464 95.9536 62.464 101.712C62.464 107.47 64.7515 112.993 68.8233 117.065C72.8951 121.136 78.4176 123.424 84.176 123.424V123.424ZM61.728 134.272C58.0871 134.272 54.5953 135.718 52.0208 138.293C49.4463 140.867 48 144.359 48 148C48.0005 153.959 49.9928 159.746 53.66 164.443C57.3273 169.139 62.4592 172.475 68.24 173.92L69.088 174.144C79.008 176.624 89.36 176.624 99.264 174.144L100.128 173.936C105.909 172.491 111.041 169.155 114.708 164.459C118.375 159.762 120.367 153.975 120.368 148.016C120.37 146.212 120.017 144.425 119.328 142.758C118.639 141.09 117.628 139.575 116.353 138.298C115.078 137.022 113.564 136.009 111.897 135.319C110.231 134.628 108.444 134.272 106.64 134.272H61.728Z" fill="#008489"/>
</svg>
