<svg width="256" height="256" viewBox="0 0 256 256" fill="none" xmlns="http://www.w3.org/2000/svg">
<path d="M234.667 213.333H192V245.333L138.667 197.333L192 149.333V181.333H234.667V213.333ZM213.333 42.6667H42.6667C37.0088 42.6667 31.5825 44.9143 27.5818 48.9151C23.581 52.9159 21.3334 58.3421 21.3334 64V192C21.3334 197.658 23.581 203.084 27.5818 207.085C31.5825 211.086 37.0088 213.333 42.6667 213.333H117.333V192H42.6667V85.3334L128 138.667L213.333 85.3334V160H234.667V64C234.667 58.3421 232.419 52.9159 228.418 48.9151C224.418 44.9143 218.991 42.6667 213.333 42.6667V42.6667ZM128 117.333L42.6667 64H213.333L128 117.333Z" fill="#008489"/>
</svg>
