<svg width="256" height="256" viewBox="0 0 256 256" fill="none" xmlns="http://www.w3.org/2000/svg">
<path d="M231.2 96.4C225.578 83.0927 217.427 71.0027 207.2 60.8C196.997 50.5727 184.907 42.4221 171.6 36.8C157.775 30.95 143.125 28 128 28C112.875 28 98.225 30.95 84.4 36.8C71.0927 42.4221 59.0027 50.5727 48.8 60.8C38.5727 71.0027 30.4221 83.0927 24.8 96.4C18.95 110.225 16 124.875 16 140C16 173.175 30.575 204.425 55.975 225.775L56.4 226.125C57.85 227.325 59.675 228 61.55 228H194.475C196.35 228 198.175 227.325 199.625 226.125L200.05 225.775C225.425 204.425 240 173.175 240 140C240 124.875 237.025 110.225 231.2 96.4ZM190.35 209H65.65C55.9899 200.29 48.2692 189.646 42.9889 177.759C37.7086 165.872 34.9868 153.007 35 140C35 115.15 44.675 91.8 62.25 74.25C79.825 56.675 103.175 47 128 47C152.85 47 176.2 56.675 193.75 74.25C211.325 91.825 221 115.175 221 140C221 166.4 209.875 191.375 190.35 209ZM155.875 105.375C155.499 105.003 154.991 104.794 154.462 104.794C153.934 104.794 153.426 105.003 153.05 105.375L131.925 126.5C127.25 125.25 122.075 126.45 118.4 130.125C117.098 131.424 116.066 132.967 115.361 134.666C114.656 136.365 114.294 138.186 114.294 140.025C114.294 141.864 114.656 143.685 115.361 145.384C116.066 147.083 117.098 148.626 118.4 149.925C119.699 151.227 121.242 152.259 122.941 152.964C124.64 153.669 126.461 154.031 128.3 154.031C130.139 154.031 131.96 153.669 133.659 152.964C135.358 152.259 136.901 151.227 138.2 149.925C139.941 148.189 141.193 146.024 141.83 143.65C142.466 141.275 142.465 138.774 141.825 136.4L162.95 115.275C163.725 114.5 163.725 113.225 162.95 112.45L155.875 105.375V105.375ZM122.5 80H133.5C134.6 80 135.5 79.1 135.5 78V58C135.5 56.9 134.6 56 133.5 56H122.5C121.4 56 120.5 56.9 120.5 58V78C120.5 79.1 121.4 80 122.5 80ZM187.5 134.5V145.5C187.5 146.6 188.4 147.5 189.5 147.5H209.5C210.6 147.5 211.5 146.6 211.5 145.5V134.5C211.5 133.4 210.6 132.5 209.5 132.5H189.5C188.4 132.5 187.5 133.4 187.5 134.5ZM190.675 85.2L182.9 77.425C182.524 77.0528 182.016 76.844 181.488 76.844C180.959 76.844 180.451 77.0528 180.075 77.425L165.925 91.575C165.553 91.9509 165.344 92.4585 165.344 92.9875C165.344 93.5165 165.553 94.0241 165.925 94.4L173.7 102.175C174.475 102.95 175.75 102.95 176.525 102.175L190.675 88.025C191.45 87.25 191.45 85.975 190.675 85.2ZM76.025 77.425C75.6491 77.0528 75.1415 76.844 74.6125 76.844C74.0835 76.844 73.5759 77.0528 73.2 77.425L65.425 85.2C65.0528 85.5759 64.844 86.0835 64.844 86.6125C64.844 87.1415 65.0528 87.6491 65.425 88.025L79.575 102.175C80.35 102.95 81.625 102.95 82.4 102.175L90.175 94.4C90.95 93.625 90.95 92.35 90.175 91.575L76.025 77.425ZM65.5 132.5H45.5C44.4 132.5 43.5 133.4 43.5 134.5V145.5C43.5 146.6 44.4 147.5 45.5 147.5H65.5C66.6 147.5 67.5 146.6 67.5 145.5V134.5C67.5 133.4 66.6 132.5 65.5 132.5Z" fill="#008489"/>
</svg>
