<svg width="256" height="256" viewBox="0 0 256 256" fill="none" xmlns="http://www.w3.org/2000/svg">
<path d="M128 21.3333C117.452 21.3333 107.14 24.4613 98.3696 30.3216C89.599 36.182 82.7631 44.5115 78.7264 54.2569C74.6898 64.0023 73.6336 74.7258 75.6915 85.0715C77.7493 95.4171 82.8288 104.92 90.2876 112.379C97.7464 119.838 107.25 124.917 117.595 126.975C127.941 129.033 138.664 127.977 148.41 123.94C158.155 119.904 166.485 113.068 172.345 104.297C178.205 95.5265 181.333 85.215 181.333 74.6667C181.333 60.5218 175.714 46.9562 165.712 36.9543C155.71 26.9524 142.145 21.3333 128 21.3333V21.3333ZM128 106.667C121.671 106.667 115.484 104.79 110.222 101.274C104.959 97.7575 100.858 92.7598 98.4359 86.9125C96.0138 81.0653 95.3801 74.6312 96.6149 68.4238C97.8496 62.2164 100.897 56.5145 105.373 52.0392C109.848 47.564 115.55 44.5163 121.757 43.2815C127.965 42.0468 134.399 42.6805 140.246 45.1025C146.093 47.5245 151.091 51.626 154.607 56.8884C158.123 62.1508 160 68.3377 160 74.6667C160 83.1536 156.629 91.2929 150.627 97.2941C144.626 103.295 136.487 106.667 128 106.667V106.667ZM224 224V213.333C224 193.531 216.133 174.539 202.131 160.536C188.128 146.533 169.136 138.667 149.333 138.667H106.667C86.8638 138.667 67.8721 146.533 53.8694 160.536C39.8666 174.539 32 193.531 32 213.333V224H53.3333V213.333C53.3333 199.188 58.9524 185.623 68.9543 175.621C78.9562 165.619 92.5218 160 106.667 160H149.333C163.478 160 177.044 165.619 187.046 175.621C197.048 185.623 202.667 199.188 202.667 213.333V224H224Z" fill="#008489"/>
</svg>
